<?xml version="1.0" encoding="utf-8"?>
<!-- Generator: Adobe Illustrator 21.0.2, SVG Export Plug-In . SVG Version: 6.00 Build 0)  -->
<svg version="1.1" id="Layer_1" xmlns="http://www.w3.org/2000/svg" xmlns:xlink="http://www.w3.org/1999/xlink" x="0px" y="0px"
	 viewBox="0 0 40 40" style="enable-background:new 0 0 40 40;" xml:space="preserve">
<style type="text/css">
	.st0{fill:#278045;}
</style>
<path class="st0" d="M30.8,12.6c-2,0-3.4-0.7-5.6-1.9C24,10.1,23,9.5,21.6,9.5c-1.8,0-2.5,0.9-3.7,2.2c-3-2.3-5.1-1.3-6.9-0.4
	c-1.1,0.5-2.2,1-3.7,1H2.7v11.4c1.5,0.1,2.9,0.2,4.7,0.7c-1.1,2.1,0.1,4.5,2.3,4.9c0.5,1,1.4,1.7,2.5,1.8c0.4,0.9,1.4,1.7,2.5,1.8
	c0.8,1.6,2.8,2.4,4.6,1.5c0.6,0.5,1.4,0.8,2.3,0.8c1.3,0,2.5-0.7,3.1-1.9c1.1-0.2,2-0.9,2.4-1.9c1-0.2,1.9-0.9,2.4-1.8
	c2-0.4,3.3-2.5,2.4-4.6c1.6-0.8,3.2-1.1,5.4-1.6V12.3C35.9,12.3,32.2,12.6,30.8,12.6z M9.7,27c-0.5-0.4-0.6-1.2-0.1-1.7l1.1-1.4
	c0.5-0.6,1.3-0.7,1.8-0.3c0.5,0.4,0.6,1.2,0.1,1.7l-1.1,1.4C11,27.3,10.2,27.4,9.7,27z M12.1,28.8c-0.5-0.4-0.6-1.2-0.2-1.7l1.1-1.4
	c0.5-0.6,1.3-0.7,1.8-0.3c0.5,0.4,0.6,1.2,0.1,1.7l-1.1,1.4C13.5,29.1,12.7,29.2,12.1,28.8z M14.6,30.7c-0.5-0.4-0.6-1.2-0.1-1.7
	l1.1-1.4c0.5-0.6,1.3-0.7,1.8-0.3c0.5,0.4,0.6,1.2,0.1,1.7l-1.1,1.4C15.9,30.9,15.1,31.1,14.6,30.7z M20,30.9l-1.1,1.4
	c-0.5,0.6-1.3,0.7-1.8,0.3c-0.5-0.4-0.6-1.2-0.1-1.7l1.1-1.4c0.5-0.5,1.3-0.7,1.8-0.3C20.4,29.5,20.5,30.3,20,30.9z M22.3,32.9
	c-0.2,0.2-0.5,0.3-0.8,0.3c-0.2,0-0.4-0.1-0.6-0.1l0.7-0.8c0.3-0.3,0.5-0.7,0.6-1.2l0.2,0.2C22.9,31.7,22.9,32.5,22.3,32.9z
	 M29.5,27.3c-0.5,0.4-1.3,0.3-1.8-0.2L24.1,24c-0.3-0.3-0.7,0.2-0.4,0.4l3.5,3c0.5,0.5,0.4,1.3-0.1,1.7c-0.5,0.4-1.3,0.3-1.8-0.2
	l-2.8-2.4c-0.3-0.3-0.7,0.2-0.4,0.4l2.7,2.4c0.5,0.5,0.4,1.3-0.1,1.7c-0.5,0.4-1.3,0.3-1.8-0.2l-0.5-0.5c0.2-1.8-1.1-3.3-2.8-3.6
	c-0.5-1-1.4-1.7-2.5-1.8c-0.5-1-1.4-1.7-2.5-1.8c-0.9-2-3.5-2.5-5.2-1.1c-1.2-0.3-2.4-0.6-3.9-0.8v-5.9h1.7c2.2,0,3.7-0.7,5-1.3
	c1.6-0.7,2.3-1.1,3.7-0.1c-0.9,0.9-1.9,1.7-2.8,2.3c-0.8,0.5-1.2,1.4-1,2.4c0.3,1.3,1.8,2.5,4,2.5c2.8,0,4.2-1.7,5.7-2.5
	c2.1,2.1,5.7,5.2,7.9,7.2C30.1,26.3,30,26.9,29.5,27.3z M34.4,21.3c-1.3,0.3-2.6,0.7-3.9,1.3c-1.6-1.4-5.1-4.6-6.3-5.8
	c-1.4-1.4-2.9-1.6-4.4-0.3c-1.1,0.9-2.9,2.1-4.3,1.6c2-1.4,3.7-3.4,5.3-5.2c0.5-0.5,0.8-0.9,2.2-0.1l1,0.5c2.5,1.3,4.4,2.3,7.4,2.2
	c0.9,0,2.1-0.1,3.1-0.2C34.4,15.3,34.4,21.3,34.4,21.3z"/>
</svg>
